<?xml version="1.0" standalone="no"?><!DOCTYPE svg PUBLIC "-//W3C//DTD SVG 1.1//EN" "http://www.w3.org/Graphics/SVG/1.1/DTD/svg11.dtd"><svg width="64" height="64" viewBox="0 0 64 64" version="1.1" xmlns="http://www.w3.org/2000/svg" xmlns:xlink="http://www.w3.org/1999/xlink"><defs><style type="text/css"><![CDATA[
@font-face { font-family: ifont; src: url(http://at.alicdn.com/t/font_1442373896_4754455.eot?#iefix) format(embedded-opentype), url(http://at.alicdn.com/t/font_1442373896_4754455.woff) format(woff), url(http://at.alicdn.com/t/font_1442373896_4754455.ttf) format(truetype), url(http://at.alicdn.com/t/font_1442373896_4754455.svg#ifont) format(svg); }

]]></style></defs><g class="transform-group"><g transform="scale(0.0625, 0.0625)"><path d="M966.122825 964.745455 966.122825 894.735961 896.114354 894.735961ZM301.038264 124.637672 301.038264 299.659871 371.046734 369.669364 371.046734 54.629201 56.006572 54.629201 126.015042 124.637672ZM896.114354 614.701057 651.082662 614.701057 651.082662 649.705292 721.091132 719.713762 721.091132 684.709527 791.100626 684.709527 791.100626 754.717997 756.096391 754.717997 896.114354 894.735961 896.114354 824.727491 966.122825 824.727491 966.122825 754.717997 966.122825 684.709527 896.114354 684.709527ZM266.033006 264.655635 266.033006 159.641907 161.0203 159.641907ZM441.055205 54.629201l70.00847 0 0 70.00847-70.00847 0 0-70.00847ZM651.082662 54.629201l0 315.040163 315.040163 0L966.122825 54.629201 651.082662 54.629201zM896.114354 299.659871 721.091132 299.659871 721.091132 124.637672l175.022199 0L896.113331 299.659871zM756.096391 159.641907l105.013729 0 0 105.013729-105.013729 0 0-105.013729ZM581.073168 439.677834 581.073168 334.665129 511.064698 334.665129 511.064698 439.677834 441.056228 439.677834 511.064698 509.687328 581.073168 509.687328 581.073168 579.695798 686.086897 579.695798 686.086897 509.687328 756.096391 509.687328 756.096391 439.677834ZM581.073168 264.655635 581.073168 124.637672 511.064698 124.637672 511.064698 194.647165 441.055205 194.647165 441.055205 334.665129 511.064698 334.665129 511.064698 264.655635ZM896.114354 439.677834 826.104861 439.677834 826.104861 509.687328 756.096391 509.687328 756.096391 579.695798 966.122825 579.695798 966.122825 509.687328 896.114354 509.687328Z" fill="#000000"></path></g></g></svg>